<svg width="1024" height="1024" viewBox="0 0 1024 1024" fill="none" xmlns="http://www.w3.org/2000/svg">
<path d="M435.281 236V196.543H444.824L456.035 224.898H456.199L467.41 196.543H476.953V236H469.598V209.312H469.352L458.715 236H453.52L442.855 209.312H442.637V236H435.281ZM483.516 236V196.543H509.656V203.352H491.773V212.812H508.645V219.266H491.773V229.191H509.656V236H483.516ZM515.617 236V196.543H522.836L540.664 222.191H540.828V196.543H549.059V236H541.895L524.012 210.16H523.848V236H515.617ZM572.191 236.684C562.074 236.684 555.648 230.832 555.648 222.055V196.543H563.906V221.316C563.906 226.43 566.887 229.684 572.191 229.684C577.496 229.684 580.449 226.43 580.449 221.316V196.543H588.707V222.055C588.707 230.805 582.363 236.684 572.191 236.684Z" fill="black" style="fill:black;fill-opacity:1;"/>
<path d="M520.344 856.555C518.117 856.555 516.992 855.406 516.992 853.203V820.977C516.992 818.773 518.117 817.625 520.344 817.625H525.828C528.031 817.625 529.18 818.703 529.18 820.977V853.203C529.18 855.406 528.031 856.555 525.828 856.555H520.344ZM539.75 856.555C537.523 856.555 536.398 855.406 536.398 853.203V820.977C536.398 818.773 537.547 817.625 539.75 817.625H545.258C547.461 817.625 548.609 818.703 548.609 820.977V853.203C548.609 855.406 547.461 856.555 545.258 856.555H539.75ZM479.727 855.898C477.688 855.898 475.977 854.352 475.977 851.516V822.617C475.977 819.781 477.688 818.258 479.727 818.258C480.758 818.258 481.625 818.562 482.633 819.148L506.656 833.234C508.414 834.289 509.281 835.508 509.281 837.055C509.281 838.625 508.391 839.867 506.656 840.898L482.633 855.008C481.625 855.594 480.758 855.898 479.727 855.898Z" fill="black" style="fill:black;fill-opacity:1;"/>
<path d="M193.812 532.5H188.328C186.125 532.5 184.977 531.375 184.977 529.148V498.984C184.977 496.711 186.125 495.609 188.328 495.609H193.812C196.039 495.609 197.164 496.758 197.164 498.984V513.164C197.469 512.25 198.289 511.523 199.695 510.703L224.656 496.172C225.406 495.727 226.203 495.516 226.953 495.516C228.688 495.516 230.141 496.711 230.141 499.172V513.234C230.422 512.273 231.242 511.547 232.695 510.703L257.633 496.172C258.383 495.727 259.18 495.516 259.93 495.516C261.664 495.516 263.117 496.711 263.117 499.172V528.984C263.117 531.445 261.664 532.617 259.93 532.617C259.18 532.617 258.383 532.406 257.633 531.984L232.695 517.453C231.242 516.609 230.422 515.859 230.141 514.922V528.984C230.141 531.445 228.688 532.617 226.953 532.617C226.203 532.617 225.406 532.406 224.656 531.984L199.695 517.453C198.289 516.633 197.469 515.906 197.164 514.992V529.148C197.164 531.375 196.039 532.5 193.812 532.5Z" fill="black" style="fill:black;fill-opacity:1;"/>
<path d="M768.977 528.984V499.172C768.977 496.711 770.43 495.516 772.164 495.516C772.914 495.516 773.711 495.727 774.461 496.172L799.398 510.703C800.852 511.547 801.672 512.273 801.953 513.234V499.172C801.953 496.711 803.43 495.516 805.141 495.516C805.891 495.516 806.688 495.727 807.438 496.172L832.398 510.703C833.805 511.523 834.625 512.25 834.93 513.164V498.984C834.93 496.758 836.055 495.609 838.281 495.609H843.766C845.969 495.609 847.117 496.711 847.117 498.984V529.148C847.117 531.375 845.969 532.5 843.766 532.5H838.281C836.055 532.5 834.93 531.375 834.93 529.148V514.992C834.625 515.906 833.805 516.633 832.398 517.453L807.438 531.984C806.688 532.406 805.891 532.617 805.141 532.617C803.43 532.617 801.953 531.445 801.953 528.984V514.922C801.672 515.859 800.852 516.609 799.398 517.453L774.461 531.984C773.711 532.406 772.914 532.617 772.164 532.617C770.43 532.617 768.977 531.445 768.977 528.984Z" fill="black" style="fill:black;fill-opacity:1;"/>
</svg>
