<svg width="1024" height="1024" viewBox="0 0 1024 1024" fill="none" xmlns="http://www.w3.org/2000/svg">
<path d="M445.812 230V196.18H453.992L463.602 220.484H463.742L473.352 196.18H481.531V230H475.227V207.125H475.016L465.898 230H461.445L452.305 207.125H452.117V230H445.812ZM487.156 230V196.18H509.562V202.016H494.234V210.125H508.695V215.656H494.234V224.164H509.562V230H487.156ZM514.672 230V196.18H520.859L536.141 218.164H536.281V196.18H543.336V230H537.195L521.867 207.852H521.727V230H514.672ZM563.164 230.586C554.492 230.586 548.984 225.57 548.984 218.047V196.18H556.062V217.414C556.062 221.797 558.617 224.586 563.164 224.586C567.711 224.586 570.242 221.797 570.242 217.414V196.18H577.32V218.047C577.32 225.547 571.883 230.586 563.164 230.586Z" fill="black"/>
<path d="M475.977 851.984V822.172C475.977 819.711 477.43 818.516 479.164 818.516C479.914 818.516 480.711 818.727 481.461 819.172L506.398 833.703C508.25 834.781 509.07 835.672 509.07 837.078C509.07 838.461 508.25 839.375 506.398 840.453L481.461 854.984C480.711 855.406 479.914 855.617 479.164 855.617C477.43 855.617 475.977 854.445 475.977 851.984ZM520.016 855.5C517.789 855.5 516.664 854.375 516.664 852.148V821.984C516.664 819.758 517.812 818.609 520.016 818.609H525.5C527.727 818.609 528.875 819.711 528.875 821.984V852.148C528.875 854.375 527.727 855.5 525.5 855.5H520.016ZM537.758 855.5C535.531 855.5 534.406 854.375 534.406 852.148V821.984C534.406 819.758 535.531 818.609 537.758 818.609H543.242C545.445 818.609 546.594 819.711 546.594 821.984V852.148C546.594 854.375 545.445 855.5 543.242 855.5H537.758Z" fill="black"/>
<path d="M157.812 530.5H152.328C150.125 530.5 148.977 529.375 148.977 527.148V496.984C148.977 494.711 150.125 493.609 152.328 493.609H157.812C160.039 493.609 161.164 494.758 161.164 496.984V511.164C161.469 510.25 162.289 509.523 163.695 508.703L188.656 494.172C189.406 493.727 190.203 493.516 190.953 493.516C192.688 493.516 194.141 494.711 194.141 497.172V511.234C194.422 510.273 195.242 509.547 196.695 508.703L221.633 494.172C222.383 493.727 223.18 493.516 223.93 493.516C225.664 493.516 227.117 494.711 227.117 497.172V526.984C227.117 529.445 225.664 530.617 223.93 530.617C223.18 530.617 222.383 530.406 221.633 529.984L196.695 515.453C195.242 514.609 194.422 513.859 194.141 512.922V526.984C194.141 529.445 192.688 530.617 190.953 530.617C190.203 530.617 189.406 530.406 188.656 529.984L163.695 515.453C162.289 514.633 161.469 513.906 161.164 512.992V527.148C161.164 529.375 160.039 530.5 157.812 530.5Z" fill="black"/>
<path d="M797.977 526.984V497.172C797.977 494.711 799.43 493.516 801.164 493.516C801.914 493.516 802.711 493.727 803.461 494.172L828.398 508.703C829.852 509.547 830.672 510.273 830.953 511.234V497.172C830.953 494.711 832.43 493.516 834.141 493.516C834.891 493.516 835.688 493.727 836.438 494.172L861.398 508.703C862.805 509.523 863.625 510.25 863.93 511.164V496.984C863.93 494.758 865.055 493.609 867.281 493.609H872.766C874.969 493.609 876.117 494.711 876.117 496.984V527.148C876.117 529.375 874.969 530.5 872.766 530.5H867.281C865.055 530.5 863.93 529.375 863.93 527.148V512.992C863.625 513.906 862.805 514.633 861.398 515.453L836.438 529.984C835.688 530.406 834.891 530.617 834.141 530.617C832.43 530.617 830.953 529.445 830.953 526.984V512.922C830.672 513.859 829.852 514.609 828.398 515.453L803.461 529.984C802.711 530.406 801.914 530.617 801.164 530.617C799.43 530.617 797.977 529.445 797.977 526.984Z" fill="black"/>
</svg>
